<svg width="709" height="229" viewBox="0 0 709 229" fill="none" xmlns="http://www.w3.org/2000/svg">
<path d="M0.656446 0.149981H128.016V45.124H50.8044V92.088H128.016V137.46H50.8044V182.434H128.016V229H0.656446V0.149981ZM274.878 201.936V132.286L237.466 114.774L274.878 96.864V27.612L229.904 0.149981H147.518V45.124H224.73V92.088H147.518V137.46H224.73V182.434H147.518V229H229.904L274.878 201.936ZM338.614 27.612V201.936L385.18 229H465.974V184.026H390.354V47.114H467.566V0.149981H385.18L338.614 27.612ZM614.428 74.178H562.688V47.114H485.476V0.149981H567.862L614.428 27.612V74.178ZM614.428 92.088V201.936L567.862 229H487.068V184.026H562.688V137.46H485.476V92.088H614.428ZM653.439 174.076H708.363V229H653.439V174.076Z" fill="#05142E"/>
</svg>
