<?xml version="1.0" encoding="UTF-8"?>
<!DOCTYPE svg PUBLIC "-//W3C//DTD SVG 1.1//EN" "http://www.w3.org/Graphics/SVG/1.1/DTD/svg11.dtd">
<svg xmlns="http://www.w3.org/2000/svg" version="1.1" width="500px" height="500px" style="shape-rendering:geometricPrecision; text-rendering:geometricPrecision; image-rendering:optimizeQuality; fill-rule:evenodd; clip-rule:evenodd" xmlns:xlink="http://www.w3.org/1999/xlink">
<g><path style="opacity:1" fill="#fee278" d="M 111.5,67.5 C 202.039,68.1691 292.706,68.8358 383.5,69.5C 385.277,72.4477 387.777,74.4477 391,75.5C 391.167,146.169 391.667,216.836 392.5,287.5C 393.667,216.169 393.833,144.836 393,73.5C 385.175,68.839 385.675,67.5057 394.5,69.5C 394.5,145.5 394.5,221.5 394.5,297.5C 390.495,305.322 384.162,310.489 375.5,313C 359.328,313.169 343.328,313.669 327.5,314.5C 327.5,314.833 327.5,315.167 327.5,315.5C 326.668,337.33 326.168,359.33 326,381.5C 325.439,384.279 324.606,386.946 323.5,389.5C 322.42,392.911 320.086,394.911 316.5,395.5C 316.201,399.133 314.201,401.133 310.5,401.5C 308.45,401.961 306.45,402.628 304.5,403.5C 301.788,401.74 298.788,401.073 295.5,401.5C 234.496,401.167 173.496,401.5 112.5,402.5C 170.999,403.167 229.332,403.833 287.5,404.5C 226.5,404.5 165.5,404.5 104.5,404.5C 104.5,293.5 104.5,182.5 104.5,71.5C 104.5,70.1667 104.5,68.8333 104.5,67.5C 106.833,67.5 109.167,67.5 111.5,67.5 Z"/></g>
<g><path style="opacity:0.602" fill="#f9e9b0" d="M 396.5,297.5 C 396.167,297.5 395.833,297.5 395.5,297.5C 395.5,220.5 395.5,143.5 395.5,66.5C 394.167,66.5 392.833,66.5 391.5,66.5C 389.5,66.5 387.5,66.5 385.5,66.5C 291.5,66.5 197.5,66.5 103.5,66.5C 103.5,68.1667 103.5,69.8333 103.5,71.5C 103.167,183.001 103.501,294.335 104.5,405.5C 104.5,405.833 104.5,406.167 104.5,406.5C 102.502,293.172 101.835,179.505 102.5,65.5C 200.5,65.5 298.5,65.5 396.5,65.5C 396.5,142.833 396.5,220.167 396.5,297.5 Z"/></g>
<g><path style="opacity:1" fill="#635a28" d="M 248.5,181.5 C 247.883,181.389 247.383,181.056 247,180.5C 245.961,181.71 244.794,182.71 243.5,183.5C 244.412,179.531 246.079,178.864 248.5,181.5 Z"/></g>
<g><path style="opacity:1" fill="#433618" d="M 336.5,171.5 C 338.173,172.343 339.34,173.676 340,175.5C 340.579,179.203 340.412,182.869 339.5,186.5C 338.833,186.833 338.167,187.167 337.5,187.5C 339.086,181.968 338.753,176.635 336.5,171.5 Z"/></g>
<g><path style="opacity:1" fill="#9c8d50" d="M 304.5,165.5 C 306.955,169.734 308.289,174.4 308.5,179.5C 307.29,176.111 305.957,172.778 304.5,169.5C 304.5,168.167 304.5,166.833 304.5,165.5 Z"/></g>
<g><path style="opacity:1" fill="#f4db7b" d="M 311.5,166.5 C 312.167,166.833 312.833,167.167 313.5,167.5C 315.43,171.1 318.097,174.1 321.5,176.5C 321.973,177.906 322.973,178.573 324.5,178.5C 324.5,179.167 324.5,179.833 324.5,180.5C 325.707,183.814 325.707,187.148 324.5,190.5C 322.678,193.5 320.178,194.167 317,192.5C 316.53,191.423 316.697,190.423 317.5,189.5C 319.729,187.901 320.062,185.901 318.5,183.5C 317.713,181.896 316.38,181.229 314.5,181.5C 314.405,179.214 313.738,177.214 312.5,175.5C 311.976,173.694 311.309,172.028 310.5,170.5C 310.232,168.901 310.566,167.568 311.5,166.5 Z"/></g>
<g><path style="opacity:1" fill="#685b2d" d="M 278.5,172.5 C 275.733,175.925 273.4,179.591 271.5,183.5C 271.366,181.708 271.699,180.042 272.5,178.5C 274.167,176.167 276.167,174.167 278.5,172.5 Z"/></g>
<g><path style="opacity:1" fill="#090602" d="M 311.5,144.5 C 312.167,144.5 312.5,144.833 312.5,145.5C 313.167,146.833 314.167,147.833 315.5,148.5C 316.167,151.167 317.833,152.833 320.5,153.5C 320.81,155.144 321.81,156.144 323.5,156.5C 324.833,158.167 326.167,159.833 327.5,161.5C 327.833,163.833 329.167,165.167 331.5,165.5C 332.5,165.833 333.167,166.5 333.5,167.5C 333.738,169.404 334.738,170.738 336.5,171.5C 338.753,176.635 339.086,181.968 337.5,187.5C 336.89,188.391 336.557,189.391 336.5,190.5C 335.094,190.973 334.427,191.973 334.5,193.5C 331.568,194.8 329.234,196.8 327.5,199.5C 323.699,200.715 320.033,200.715 316.5,199.5C 315.432,198.566 314.099,198.232 312.5,198.5C 312.753,202.415 312.087,206.081 310.5,209.5C 310.5,210.167 310.5,210.833 310.5,211.5C 309.094,211.973 308.427,212.973 308.5,214.5C 303.573,220.464 297.239,223.464 289.5,223.5C 288.432,222.566 287.099,222.232 285.5,222.5C 285.492,225.545 285.159,228.545 284.5,231.5C 284.737,232.791 284.404,233.791 283.5,234.5C 281.527,237.139 279.194,239.473 276.5,241.5C 273.098,241.658 269.764,241.324 266.5,240.5C 265.833,240.167 265.167,239.833 264.5,239.5C 264.573,237.973 263.906,236.973 262.5,236.5C 262.573,234.973 261.906,233.973 260.5,233.5C 260.008,231.181 259.008,229.181 257.5,227.5C 257.573,225.973 256.906,224.973 255.5,224.5C 255.058,221.668 253.725,220.668 251.5,221.5C 248.022,222.928 247.022,225.261 248.5,228.5C 248.427,230.027 249.094,231.027 250.5,231.5C 252.097,233.848 253.097,236.514 253.5,239.5C 253.366,241.292 253.699,242.958 254.5,244.5C 255.411,253.023 253.078,260.356 247.5,266.5C 245.847,266.66 244.514,267.326 243.5,268.5C 243.158,269.338 242.492,269.672 241.5,269.5C 237.785,269.577 234.119,269.244 230.5,268.5C 228.5,265.833 226.167,263.5 223.5,261.5C 223.672,260.508 223.338,259.842 222.5,259.5C 222.245,257.033 221.245,255.033 219.5,253.5C 218.237,251.304 217.237,248.97 216.5,246.5C 216.5,245.167 216.5,243.833 216.5,242.5C 216.413,237.463 216.746,232.463 217.5,227.5C 217.557,226.391 217.89,225.391 218.5,224.5C 221.167,222.5 223.5,220.167 225.5,217.5C 225.833,216.833 226.167,216.167 226.5,215.5C 229.833,215.5 233.167,215.5 236.5,215.5C 237.911,217.914 239.911,219.581 242.5,220.5C 243.833,221.833 245.167,221.833 246.5,220.5C 249.841,218.519 250.841,215.852 249.5,212.5C 249.573,210.973 248.906,209.973 247.5,209.5C 247.586,208.504 247.252,207.671 246.5,207C 245.062,206.781 243.729,206.281 242.5,205.5C 243.754,203.357 243.754,201.357 242.5,199.5C 242.34,197.847 241.674,196.514 240.5,195.5C 240.771,193.62 240.104,192.287 238.5,191.5C 239.167,189.833 239.833,188.167 240.5,186.5C 240.81,184.856 241.81,183.856 243.5,183.5C 244.794,182.71 245.961,181.71 247,180.5C 247.383,181.056 247.883,181.389 248.5,181.5C 248.75,183.674 249.75,185.341 251.5,186.5C 252.167,187.5 252.833,188.5 253.5,189.5C 253.5,190.167 253.5,190.833 253.5,191.5C 255.568,194.026 256.901,197.026 257.5,200.5C 258.141,201.993 259.141,202.993 260.5,203.5C 260.75,205.674 261.75,207.341 263.5,208.5C 263.833,209.167 264.167,209.833 264.5,210.5C 265.038,212.117 265.371,213.784 265.5,215.5C 266.11,217.434 267.11,219.101 268.5,220.5C 269.167,220.833 269.833,221.167 270.5,221.5C 271.588,223.583 272.588,225.749 273.5,228C 275.134,228.494 276.801,228.66 278.5,228.5C 280.997,227.871 282.33,226.204 282.5,223.5C 283.172,220.058 282.172,217.391 279.5,215.5C 279.34,213.847 278.674,212.514 277.5,211.5C 277.573,209.973 276.906,208.973 275.5,208.5C 275.5,208.167 275.5,207.833 275.5,207.5C 275.204,205.597 274.537,203.93 273.5,202.5C 272.833,202.5 272.5,202.167 272.5,201.5C 271.693,195.536 271.36,189.536 271.5,183.5C 273.4,179.591 275.733,175.925 278.5,172.5C 281.841,170.5 285.507,169.5 289.5,169.5C 289.842,170.338 290.508,170.672 291.5,170.5C 296.282,175.85 298.282,182.183 297.5,189.5C 295.313,194.527 292.646,199.36 289.5,204C 289.978,205.642 290.978,206.809 292.5,207.5C 294.073,210.893 296.74,212.226 300.5,211.5C 302.027,211.573 303.027,210.906 303.5,209.5C 303.5,208.833 303.833,208.5 304.5,208.5C 306.262,207.738 307.262,206.404 307.5,204.5C 309.045,203.77 309.878,202.437 310,200.5C 310.5,194.175 310.666,187.842 310.5,181.5C 310.369,180.761 310.536,180.094 311,179.5C 312.188,180.563 312.688,181.897 312.5,183.5C 313.833,183.5 315.167,183.5 316.5,183.5C 316.833,183.5 317.167,183.5 317.5,183.5C 317.5,185.5 317.5,187.5 317.5,189.5C 316.005,189.415 315.005,190.081 314.5,191.5C 316.598,195.608 319.598,196.441 323.5,194C 325.464,192.549 326.797,190.716 327.5,188.5C 327.802,185.941 327.468,183.607 326.5,181.5C 326.573,179.973 325.906,178.973 324.5,178.5C 324.027,177.094 323.027,176.427 321.5,176.5C 319.909,173.569 317.909,170.902 315.5,168.5C 313.683,166.988 312.683,164.988 312.5,162.5C 309.921,162.083 307.754,162.75 306,164.5C 305.284,162.121 304.117,160.121 302.5,158.5C 302.579,157.07 302.246,155.736 301.5,154.5C 302.63,153.378 303.297,152.044 303.5,150.5C 303.5,149.833 303.833,149.5 304.5,149.5C 306.573,147.42 308.907,145.754 311.5,144.5 Z"/></g>
<g><path style="opacity:1" fill="#675932" d="M 324.5,178.5 C 325.906,178.973 326.573,179.973 326.5,181.5C 325.833,181.167 325.167,180.833 324.5,180.5C 324.5,179.833 324.5,179.167 324.5,178.5 Z"/></g>
<g><path style="opacity:1" fill="#61542b" d="M 281.5,177.5 C 281.198,180.059 281.532,182.393 282.5,184.5C 282.5,185.833 282.5,187.167 282.5,188.5C 280.431,184.956 280.098,181.29 281.5,177.5 Z"/></g>
<g><path style="opacity:1" fill="#aa9958" d="M 312.5,175.5 C 313.738,177.214 314.405,179.214 314.5,181.5C 316.38,181.229 317.713,181.896 318.5,183.5C 318.167,183.5 317.833,183.5 317.5,183.5C 317.167,183.5 316.833,183.5 316.5,183.5C 315.791,182.596 314.791,182.263 313.5,182.5C 313.007,180.194 312.674,177.861 312.5,175.5 Z"/></g>
<g><path style="opacity:1" fill="#5f5225" d="M 321.5,176.5 C 323.027,176.427 324.027,177.094 324.5,178.5C 322.973,178.573 321.973,177.906 321.5,176.5 Z"/></g>
<g><path style="opacity:1" fill="#c9b66d" d="M 289.5,178.5 C 289.5,179.167 289.5,179.833 289.5,180.5C 284.03,175.738 281.697,177.071 282.5,184.5C 281.532,182.393 281.198,180.059 281.5,177.5C 282.374,176.475 283.541,175.808 285,175.5C 286.643,176.315 288.143,177.315 289.5,178.5 Z"/></g>
<g><path style="opacity:1" fill="#f7dd78" d="M 304.5,169.5 C 305.957,172.778 307.29,176.111 308.5,179.5C 309.338,179.842 309.672,180.508 309.5,181.5C 309.975,189.312 309.308,196.979 307.5,204.5C 305.738,205.262 304.738,206.596 304.5,208.5C 303.833,208.5 303.5,208.833 303.5,209.5C 302.391,209.557 301.391,209.89 300.5,210.5C 297.447,210.428 294.781,209.428 292.5,207.5C 292.322,206.305 291.989,205.138 291.5,204C 294.672,199.658 296.672,194.825 297.5,189.5C 299.615,182.51 298.282,176.177 293.5,170.5C 296.484,170.787 297.817,172.454 297.5,175.5C 298.5,175.5 299.5,175.5 300.5,175.5C 300.711,179.345 300.878,183.345 301,187.5C 301.701,184.673 302.701,182.006 304,179.5C 304.498,176.183 304.665,172.85 304.5,169.5 Z"/></g>
<g><path style="opacity:1" fill="#7d6d34" d="M 291.5,170.5 C 292.167,170.5 292.833,170.5 293.5,170.5C 298.282,176.177 299.615,182.51 297.5,189.5C 298.282,182.183 296.282,175.85 291.5,170.5 Z"/></g>
<g><path style="opacity:1" fill="#53461a" d="M 333.5,167.5 C 335.262,168.262 336.262,169.596 336.5,171.5C 334.738,170.738 333.738,169.404 333.5,167.5 Z"/></g>
<g><path style="opacity:1" fill="#7f723d" d="M 313.5,167.5 C 314.167,167.833 314.833,168.167 315.5,168.5C 317.909,170.902 319.909,173.569 321.5,176.5C 318.097,174.1 315.43,171.1 313.5,167.5 Z"/></g>
<g><path style="opacity:1" fill="#594c20" d="M 284.5,168.5 C 286.415,168.216 288.081,168.549 289.5,169.5C 285.507,169.5 281.841,170.5 278.5,172.5C 279.853,170.262 281.853,168.929 284.5,168.5 Z"/></g>
<g><path style="opacity:1" fill="#8e8653" d="M 311.5,166.5 C 310.566,167.568 310.232,168.901 310.5,170.5C 309.225,168.392 308.725,166.058 309,163.5C 310.417,164.078 311.25,165.078 311.5,166.5 Z"/></g>
<g><path style="opacity:1" fill="#d5c170" d="M 293.5,170.5 C 292.833,170.5 292.167,170.5 291.5,170.5C 290.508,170.672 289.842,170.338 289.5,169.5C 288.081,168.549 286.415,168.216 284.5,168.5C 284.97,167.307 285.97,166.64 287.5,166.5C 290.268,166.727 292.268,168.061 293.5,170.5 Z"/></g>
<g><path style="opacity:1" fill="#1f190b" d="M 302.5,158.5 C 304.117,160.121 305.284,162.121 306,164.5C 307.754,162.75 309.921,162.083 312.5,162.5C 312.683,164.988 313.683,166.988 315.5,168.5C 314.833,168.167 314.167,167.833 313.5,167.5C 312.833,167.167 312.167,166.833 311.5,166.5C 311.25,165.078 310.417,164.078 309,163.5C 308.725,166.058 309.225,168.392 310.5,170.5C 311.309,172.028 311.976,173.694 312.5,175.5C 312.674,177.861 313.007,180.194 313.5,182.5C 314.791,182.263 315.791,182.596 316.5,183.5C 315.167,183.5 313.833,183.5 312.5,183.5C 312.688,181.897 312.188,180.563 311,179.5C 310.536,180.094 310.369,180.761 310.5,181.5C 310.167,181.5 309.833,181.5 309.5,181.5C 309.672,180.508 309.338,179.842 308.5,179.5C 308.289,174.4 306.955,169.734 304.5,165.5C 303.833,163.167 303.167,160.833 302.5,158.5 Z"/></g>
<g><path style="opacity:1" fill="#3d3313" d="M 327.5,161.5 C 327.833,161.5 328.167,161.5 328.5,161.5C 329.5,162.833 330.5,164.167 331.5,165.5C 329.167,165.167 327.833,163.833 327.5,161.5 Z"/></g>
<g><path style="opacity:1" fill="#b4a25c" d="M 323.5,156.5 C 326.167,157.167 327.833,158.833 328.5,161.5C 328.167,161.5 327.833,161.5 327.5,161.5C 326.167,159.833 324.833,158.167 323.5,156.5 Z"/></g>
<g><path style="opacity:1" fill="#978a4a" d="M 320.5,153.5 C 322.19,153.856 323.19,154.856 323.5,156.5C 321.81,156.144 320.81,155.144 320.5,153.5 Z"/></g>
<g><path style="opacity:1" fill="#5e5223" d="M 303.5,150.5 C 303.297,152.044 302.63,153.378 301.5,154.5C 302.246,155.736 302.579,157.07 302.5,158.5C 299.597,155.442 299.93,152.776 303.5,150.5 Z"/></g>
<g><path style="opacity:1" fill="#5a4e25" d="M 315.5,148.5 C 317.5,149.833 319.167,151.5 320.5,153.5C 317.833,152.833 316.167,151.167 315.5,148.5 Z"/></g>
<g><path style="opacity:1" fill="#6c5e2d" d="M 311.5,144.5 C 308.907,145.754 306.573,147.42 304.5,149.5C 305.677,145.587 308.011,143.921 311.5,144.5 Z"/></g>
<g><path style="opacity:1" fill="#776c37" d="M 312.5,145.5 C 314.5,145.5 315.5,146.5 315.5,148.5C 314.167,147.833 313.167,146.833 312.5,145.5 Z"/></g>
<g><path style="opacity:1" fill="#f7e387" d="M 391.5,66.5 C 392.833,66.5 394.167,66.5 395.5,66.5C 395.5,143.5 395.5,220.5 395.5,297.5C 395.167,297.5 394.833,297.5 394.5,297.5C 394.5,221.5 394.5,145.5 394.5,69.5C 393.9,68.1001 392.9,67.1001 391.5,66.5 Z"/></g>
<g><path style="opacity:1" fill="#fee17d" d="M 385.5,66.5 C 387.5,66.5 389.5,66.5 391.5,66.5C 392.9,67.1001 393.9,68.1001 394.5,69.5C 385.675,67.5057 385.175,68.839 393,73.5C 393.833,144.836 393.667,216.169 392.5,287.5C 391.667,216.836 391.167,146.169 391,75.5C 387.777,74.4477 385.277,72.4477 383.5,69.5C 292.706,68.8358 202.039,68.1691 111.5,67.5C 203.002,67.8327 294.335,67.4994 385.5,66.5 Z"/></g>
<g><path style="opacity:1" fill="#fbe28d" d="M 385.5,66.5 C 294.335,67.4994 203.002,67.8327 111.5,67.5C 109.167,67.5 106.833,67.5 104.5,67.5C 104.5,68.8333 104.5,70.1667 104.5,71.5C 104.167,71.5 103.833,71.5 103.5,71.5C 103.5,69.8333 103.5,68.1667 103.5,66.5C 197.5,66.5 291.5,66.5 385.5,66.5 Z"/></g>
<g><path style="opacity:1" fill="#f5dc7a" d="M 289.5,180.5 C 290.383,185.103 290.717,189.77 290.5,194.5C 290.5,194.833 290.5,195.167 290.5,195.5C 289.518,196.141 288.518,196.807 287.5,197.5C 286.113,195.79 284.779,194.123 283.5,192.5C 283.567,191.041 283.234,189.708 282.5,188.5C 282.5,187.167 282.5,185.833 282.5,184.5C 281.697,177.071 284.03,175.738 289.5,180.5 Z"/></g>
<g><path style="opacity:1" fill="#cfba6d" d="M 324.5,180.5 C 325.167,180.833 325.833,181.167 326.5,181.5C 327.468,183.607 327.802,185.941 327.5,188.5C 326.5,189.167 325.5,189.833 324.5,190.5C 325.707,187.148 325.707,183.814 324.5,180.5 Z"/></g>
<g><path style="opacity:1" fill="#635225" d="M 248.5,181.5 C 250.408,182.486 251.408,184.152 251.5,186.5C 249.75,185.341 248.75,183.674 248.5,181.5 Z"/></g>
<g><path style="opacity:1" fill="#696026" d="M 317.5,183.5 C 317.833,183.5 318.167,183.5 318.5,183.5C 320.062,185.901 319.729,187.901 317.5,189.5C 317.5,187.5 317.5,185.5 317.5,183.5 Z"/></g>
<g><path style="opacity:1" fill="#59481b" d="M 240.5,186.5 C 239.833,188.167 239.167,189.833 238.5,191.5C 237.142,189.257 237.808,187.591 240.5,186.5 Z"/></g>
<g><path style="opacity:1" fill="#897e3f" d="M 289.5,178.5 C 291.006,181.356 291.672,184.523 291.5,188C 291.496,190.361 291.163,192.527 290.5,194.5C 290.717,189.77 290.383,185.103 289.5,180.5C 289.5,179.833 289.5,179.167 289.5,178.5 Z"/></g>
<g><path style="opacity:1" fill="#766834" d="M 339.5,186.5 C 339.262,188.404 338.262,189.738 336.5,190.5C 336.557,189.391 336.89,188.391 337.5,187.5C 338.167,187.167 338.833,186.833 339.5,186.5 Z"/></g>
<g><path style="opacity:1" fill="#776731" d="M 271.5,183.5 C 271.36,189.536 271.693,195.536 272.5,201.5C 271.778,201.082 271.278,200.416 271,199.5C 270.183,193.984 270.349,188.65 271.5,183.5 Z"/></g>
<g><path style="opacity:1" fill="#61552d" d="M 327.5,188.5 C 326.797,190.716 325.464,192.549 323.5,194C 319.598,196.441 316.598,195.608 314.5,191.5C 315.005,190.081 316.005,189.415 317.5,189.5C 316.697,190.423 316.53,191.423 317,192.5C 320.178,194.167 322.678,193.5 324.5,190.5C 325.5,189.833 326.5,189.167 327.5,188.5 Z"/></g>
<g><path style="opacity:1" fill="#746339" d="M 336.5,190.5 C 336.573,192.027 335.906,193.027 334.5,193.5C 334.427,191.973 335.094,190.973 336.5,190.5 Z"/></g>
<g><path style="opacity:1" fill="#4b431a" d="M 238.5,191.5 C 240.104,192.287 240.771,193.62 240.5,195.5C 239.326,194.486 238.66,193.153 238.5,191.5 Z"/></g>
<g><path style="opacity:1" fill="#241e0f" d="M 253.5,191.5 C 255.841,192.036 258.174,192.369 260.5,192.5C 259.855,193.646 259.022,194.646 258,195.5C 257.26,196.749 257.427,197.749 258.5,198.5C 259.441,200.05 260.107,201.716 260.5,203.5C 259.141,202.993 258.141,201.993 257.5,200.5C 256.901,197.026 255.568,194.026 253.5,191.5 Z"/></g>
<g><path style="opacity:1" fill="#8a7a3f" d="M 253.5,189.5 C 256.205,190.129 258.872,190.463 261.5,190.5C 261.428,193.553 260.428,196.219 258.5,198.5C 257.427,197.749 257.26,196.749 258,195.5C 259.022,194.646 259.855,193.646 260.5,192.5C 258.174,192.369 255.841,192.036 253.5,191.5C 253.5,190.833 253.5,190.167 253.5,189.5 Z"/></g>
<g><path style="opacity:1" fill="#7b6e36" d="M 334.5,193.5 C 334.586,194.496 334.252,195.329 333.5,196C 331.595,197.421 329.595,198.588 327.5,199.5C 329.234,196.8 331.568,194.8 334.5,193.5 Z"/></g>
<g><path style="opacity:1" fill="#584e2b" d="M 283.5,192.5 C 284.779,194.123 286.113,195.79 287.5,197.5C 288.518,196.807 289.518,196.141 290.5,195.5C 290.035,198.473 288.368,199.64 285.5,199C 284.331,196.993 283.665,194.827 283.5,192.5 Z"/></g>
<g><path style="opacity:1" fill="#493f1b" d="M 309.5,181.5 C 309.833,181.5 310.167,181.5 310.5,181.5C 310.666,187.842 310.5,194.175 310,200.5C 309.878,202.437 309.045,203.77 307.5,204.5C 309.308,196.979 309.975,189.312 309.5,181.5 Z"/></g>
<g><path style="opacity:1" fill="#867a3f" d="M 297.5,189.5 C 296.672,194.825 294.672,199.658 291.5,204C 291.989,205.138 292.322,206.305 292.5,207.5C 290.978,206.809 289.978,205.642 289.5,204C 292.646,199.36 295.313,194.527 297.5,189.5 Z"/></g>
<g><path style="opacity:1" fill="#4c4322" d="M 316.5,199.5 C 315.504,199.414 314.671,199.748 314,200.5C 314.087,204.122 312.92,207.122 310.5,209.5C 312.087,206.081 312.753,202.415 312.5,198.5C 314.099,198.232 315.432,198.566 316.5,199.5 Z"/></g>
<g><path style="opacity:1" fill="#d0bb6c" d="M 316.5,199.5 C 320.033,200.715 323.699,200.715 327.5,199.5C 327.38,200.586 326.713,201.253 325.5,201.5C 321.831,202.722 318.165,202.722 314.5,201.5C 314.663,203.857 314.497,206.19 314,208.5C 313.578,210.426 312.411,211.426 310.5,211.5C 310.5,210.833 310.5,210.167 310.5,209.5C 312.92,207.122 314.087,204.122 314,200.5C 314.671,199.748 315.504,199.414 316.5,199.5 Z"/></g>
<g><path style="opacity:1" fill="#b09f5c" d="M 240.5,195.5 C 241.674,196.514 242.34,197.847 242.5,199.5C 242.768,201.099 242.434,202.432 241.5,203.5C 241.167,200.833 240.833,198.167 240.5,195.5 Z"/></g>
<g><path style="opacity:1" fill="#e2cc74" d="M 272.5,178.5 C 271.699,180.042 271.366,181.708 271.5,183.5C 270.349,188.65 270.183,193.984 271,199.5C 271.278,200.416 271.778,201.082 272.5,201.5C 272.5,202.167 272.833,202.5 273.5,202.5C 273.12,204.698 273.787,206.365 275.5,207.5C 275.5,207.833 275.5,208.167 275.5,208.5C 275.427,210.027 276.094,211.027 277.5,211.5C 277.5,212.167 277.5,212.833 277.5,213.5C 276.211,211.752 274.711,211.419 273,212.5C 269.79,202.74 268.79,192.74 270,182.5C 270.122,180.563 270.955,179.23 272.5,178.5 Z"/></g>
<g><path style="opacity:1" fill="#615727" d="M 273.5,202.5 C 274.537,203.93 275.204,205.597 275.5,207.5C 273.787,206.365 273.12,204.698 273.5,202.5 Z"/></g>
<g><path style="opacity:1" fill="#726437" d="M 307.5,204.5 C 307.262,206.404 306.262,207.738 304.5,208.5C 304.738,206.596 305.738,205.262 307.5,204.5 Z"/></g>
<g><path style="opacity:1" fill="#86753d" d="M 242.5,199.5 C 243.754,201.357 243.754,203.357 242.5,205.5C 243.729,206.281 245.062,206.781 246.5,207C 247.252,207.671 247.586,208.504 247.5,209.5C 245.621,208.659 243.621,208.325 241.5,208.5C 241.5,206.833 241.5,205.167 241.5,203.5C 242.434,202.432 242.768,201.099 242.5,199.5 Z"/></g>
<g><path style="opacity:1" fill="#887b40" d="M 260.5,203.5 C 262.408,204.486 263.408,206.152 263.5,208.5C 261.75,207.341 260.75,205.674 260.5,203.5 Z"/></g>
<g><path style="opacity:1" fill="#726131" d="M 275.5,208.5 C 276.906,208.973 277.573,209.973 277.5,211.5C 276.094,211.027 275.427,210.027 275.5,208.5 Z"/></g>
<g><path style="opacity:1" fill="#91854b" d="M 292.5,207.5 C 294.781,209.428 297.447,210.428 300.5,210.5C 300.5,210.833 300.5,211.167 300.5,211.5C 296.74,212.226 294.073,210.893 292.5,207.5 Z"/></g>
<g><path style="opacity:1" fill="#433a16" d="M 303.5,209.5 C 303.027,210.906 302.027,211.573 300.5,211.5C 300.5,211.167 300.5,210.833 300.5,210.5C 301.391,209.89 302.391,209.557 303.5,209.5 Z"/></g>
<g><path style="opacity:1" fill="#6b5a31" d="M 247.5,209.5 C 248.906,209.973 249.573,210.973 249.5,212.5C 249.167,212.5 248.833,212.5 248.5,212.5C 247.89,211.609 247.557,210.609 247.5,209.5 Z"/></g>
<g><path style="opacity:1" fill="#ecd477" d="M 241.5,208.5 C 243.621,208.325 245.621,208.659 247.5,209.5C 247.557,210.609 247.89,211.609 248.5,212.5C 248.713,215.451 248.046,218.118 246.5,220.5C 245.167,221.833 243.833,221.833 242.5,220.5C 241.089,218.086 239.089,216.419 236.5,215.5C 233.167,215.5 229.833,215.5 226.5,215.5C 226.611,214.883 226.944,214.383 227.5,214C 231.609,213.335 235.609,212.502 239.5,211.5C 239.281,212.675 239.614,213.675 240.5,214.5C 242.371,213.233 244.204,213.233 246,214.5C 246.49,213.207 246.657,211.873 246.5,210.5C 244.219,210.923 242.552,210.256 241.5,208.5 Z"/></g>
<g><path style="opacity:1" fill="#706232" d="M 310.5,211.5 C 310.5,212.167 310.5,212.833 310.5,213.5C 309.833,213.833 309.167,214.167 308.5,214.5C 308.427,212.973 309.094,211.973 310.5,211.5 Z"/></g>
<g><path style="opacity:1" fill="#948341" d="M 277.5,211.5 C 278.674,212.514 279.34,213.847 279.5,215.5C 278.167,215.5 277.5,214.833 277.5,213.5C 277.5,212.833 277.5,212.167 277.5,211.5 Z"/></g>
<g><path style="opacity:1" fill="#dfc974" d="M 187.5,215.5 C 186.878,216.627 186.045,217.627 185,218.5C 184.26,219.749 184.427,220.749 185.5,221.5C 186.338,221.842 186.672,222.508 186.5,223.5C 186.5,224.167 186.5,224.833 186.5,225.5C 183.704,222.806 182.037,219.472 181.5,215.5C 183.5,215.5 185.5,215.5 187.5,215.5 Z"/></g>
<g><path style="opacity:1" fill="#837340" d="M 264.5,210.5 C 266.245,212.033 267.245,214.033 267.5,216.5C 266.833,216.167 266.167,215.833 265.5,215.5C 265.371,213.784 265.038,212.117 264.5,210.5 Z"/></g>
<g><path style="opacity:1" fill="#645526" d="M 193.5,216.5 C 192.542,216.047 191.708,215.381 191,214.5C 188.546,216.441 186.713,218.775 185.5,221.5C 184.427,220.749 184.26,219.749 185,218.5C 186.045,217.627 186.878,216.627 187.5,215.5C 190.225,212.53 192.225,212.863 193.5,216.5 Z"/></g>
<g><path style="opacity:1" fill="#090502" d="M 193.5,216.5 C 193.157,218.483 193.824,219.817 195.5,220.5C 195.896,223.721 197.229,226.388 199.5,228.5C 201.332,232.836 203.665,236.836 206.5,240.5C 206.5,241.167 206.5,241.833 206.5,242.5C 206.427,244.027 207.094,245.027 208.5,245.5C 208.755,247.967 209.755,249.967 211.5,251.5C 211.755,253.967 212.755,255.967 214.5,257.5C 215.338,257.842 215.672,258.508 215.5,259.5C 215.725,262.546 217.058,264.879 219.5,266.5C 219.755,268.967 220.755,270.967 222.5,272.5C 223.338,272.842 223.672,273.508 223.5,274.5C 223.5,275.167 223.5,275.833 223.5,276.5C 224.929,278.678 225.763,281.011 226,283.5C 223.54,284.958 221.373,286.791 219.5,289C 217.455,289.49 215.455,289.323 213.5,288.5C 212.738,286.738 211.404,285.738 209.5,285.5C 209.027,284.094 208.027,283.427 206.5,283.5C 205.738,281.738 204.404,280.738 202.5,280.5C 202.027,279.094 201.027,278.427 199.5,278.5C 198.089,276.086 196.089,274.419 193.5,273.5C 192.738,271.738 191.404,270.738 189.5,270.5C 188.738,268.738 187.404,267.738 185.5,267.5C 185.167,267.5 184.833,267.5 184.5,267.5C 182.5,265.833 180.5,264.167 178.5,262.5C 178.179,260.952 177.179,260.285 175.5,260.5C 175.229,262.38 175.896,263.713 177.5,264.5C 178.472,267.132 179.805,269.465 181.5,271.5C 181.992,273.819 182.992,275.819 184.5,277.5C 184.5,278.167 184.5,278.833 184.5,279.5C 184.75,281.674 185.75,283.341 187.5,284.5C 187.5,284.833 187.5,285.167 187.5,285.5C 188.468,288.1 189.801,290.434 191.5,292.5C 191.427,294.027 192.094,295.027 193.5,295.5C 195.104,299.047 196.438,302.714 197.5,306.5C 195.957,309.39 193.624,311.057 190.5,311.5C 190.313,309.436 189.813,307.436 189,305.5C 187.069,302.512 185.236,299.512 183.5,296.5C 183.34,294.847 182.674,293.514 181.5,292.5C 181.573,290.973 180.906,289.973 179.5,289.5C 179.34,287.847 178.674,286.514 177.5,285.5C 176.559,283.95 175.893,282.284 175.5,280.5C 175.262,278.596 174.262,277.262 172.5,276.5C 172.204,274.597 171.537,272.93 170.5,271.5C 170.34,269.847 169.674,268.514 168.5,267.5C 168.262,265.596 167.262,264.262 165.5,263.5C 165.768,261.901 165.434,260.568 164.5,259.5C 163.564,256.329 161.897,253.662 159.5,251.5C 159.294,249.451 158.461,249.117 157,250.5C 155.864,252.743 155.03,255.076 154.5,257.5C 153.092,261.967 153.758,266.3 156.5,270.5C 156.957,271.298 157.624,271.631 158.5,271.5C 159.272,272.694 160.272,273.694 161.5,274.5C 162.167,275.5 162.833,276.5 163.5,277.5C 163.973,278.906 164.973,279.573 166.5,279.5C 166.267,281.062 165.6,282.395 164.5,283.5C 159.633,284.411 155.633,283.078 152.5,279.5C 152.573,277.973 151.906,276.973 150.5,276.5C 150.204,274.597 149.537,272.93 148.5,271.5C 148.392,266.13 148.725,260.797 149.5,255.5C 150.822,252.976 151.988,250.31 153,247.5C 155.325,245.499 157.158,243.166 158.5,240.5C 158.5,239.833 158.833,239.5 159.5,239.5C 161.404,239.262 162.738,238.262 163.5,236.5C 164.833,236.5 166.167,236.5 167.5,236.5C 168.262,238.262 169.596,239.262 171.5,239.5C 172.262,241.262 173.596,242.262 175.5,242.5C 176.262,244.262 177.596,245.262 179.5,245.5C 180.262,247.262 181.596,248.262 183.5,248.5C 185.296,250.9 187.63,252.567 190.5,253.5C 193.667,258.015 197.667,261.348 202.5,263.5C 202.973,264.906 203.973,265.573 205.5,265.5C 206.287,267.104 207.62,267.771 209.5,267.5C 209.834,264.509 208.834,262.176 206.5,260.5C 206.167,259.833 205.833,259.167 205.5,258.5C 205.573,256.973 204.906,255.973 203.5,255.5C 203.672,254.508 203.338,253.842 202.5,253.5C 202.25,251.326 201.25,249.659 199.5,248.5C 199.443,247.391 199.11,246.391 198.5,245.5C 198.573,243.973 197.906,242.973 196.5,242.5C 196.443,241.391 196.11,240.391 195.5,239.5C 195.573,237.973 194.906,236.973 193.5,236.5C 193.573,234.973 192.906,233.973 191.5,233.5C 190.868,229.569 189.201,226.235 186.5,223.5C 186.672,222.508 186.338,221.842 185.5,221.5C 186.713,218.775 188.546,216.441 191,214.5C 191.708,215.381 192.542,216.047 193.5,216.5 Z"/></g>
<g><path style="opacity:1" fill="#71622d" d="M 236.5,215.5 C 239.089,216.419 241.089,218.086 242.5,220.5C 239.911,219.581 237.911,217.914 236.5,215.5 Z"/></g>
<g><path style="opacity:1" fill="#4a411b" d="M 193.5,216.5 C 194.674,217.514 195.34,218.847 195.5,220.5C 193.824,219.817 193.157,218.483 193.5,216.5 Z"/></g>
<g><path style="opacity:1" fill="#8d804a" d="M 248.5,212.5 C 248.833,212.5 249.167,212.5 249.5,212.5C 250.841,215.852 249.841,218.519 246.5,220.5C 248.046,218.118 248.713,215.451 248.5,212.5 Z"/></g>
<g><path style="opacity:1" fill="#322912" d="M 265.5,215.5 C 266.167,215.833 266.833,216.167 267.5,216.5C 268.338,216.842 268.672,217.508 268.5,218.5C 268.5,219.167 268.5,219.833 268.5,220.5C 267.11,219.101 266.11,217.434 265.5,215.5 Z"/></g>
<g><path style="opacity:1" fill="#82743f" d="M 268.5,218.5 C 269.906,218.973 270.573,219.973 270.5,221.5C 269.833,221.167 269.167,220.833 268.5,220.5C 268.5,219.833 268.5,219.167 268.5,218.5 Z"/></g>
<g><path style="opacity:1" fill="#7c6f3e" d="M 279.5,215.5 C 282.172,217.391 283.172,220.058 282.5,223.5C 282.167,223.5 281.833,223.5 281.5,223.5C 281.946,220.99 281.28,218.99 279.5,217.5C 279.5,216.833 279.5,216.167 279.5,215.5 Z"/></g>
<g><path style="opacity:1" fill="#4d431c" d="M 225.5,217.5 C 223.5,220.167 221.167,222.5 218.5,224.5C 219.833,221.167 222.167,218.833 225.5,217.5 Z"/></g>
<g><path style="opacity:1" fill="#ab9d65" d="M 255.5,224.5 C 254.395,223.4 253.062,222.733 251.5,222.5C 251.5,222.167 251.5,221.833 251.5,221.5C 253.725,220.668 255.058,221.668 255.5,224.5 Z"/></g>
<g><path style="opacity:1" fill="#817540" d="M 195.5,220.5 C 197.771,222.612 199.104,225.279 199.5,228.5C 197.229,226.388 195.896,223.721 195.5,220.5 Z"/></g>
<g><path style="opacity:1" fill="#d8c370" d="M 226.5,215.5 C 226.167,216.167 225.833,216.833 225.5,217.5C 222.167,218.833 219.833,221.167 218.5,224.5C 217.89,225.391 217.557,226.391 217.5,227.5C 216.778,227.918 216.278,228.584 216,229.5C 215.186,234.02 215.353,238.354 216.5,242.5C 216.5,243.833 216.5,245.167 216.5,246.5C 216.167,246.5 215.833,246.5 215.5,246.5C 214.145,238.523 214.312,230.523 216,222.5C 217.685,220.983 219.185,219.316 220.5,217.5C 222.411,216.523 224.411,215.857 226.5,215.5 Z"/></g>
<g><path style="opacity:1" fill="#4a401f" d="M 232.5,221.5 C 230.053,221.615 228.053,222.615 226.5,224.5C 227.336,220.809 229.336,219.809 232.5,221.5 Z"/></g>
<g><path style="opacity:1" fill="#4e4522" d="M 289.5,223.5 C 288.5,223.5 287.5,223.5 286.5,223.5C 286.5,224.833 286.5,226.167 286.5,227.5C 286.34,229.153 285.674,230.486 284.5,231.5C 285.159,228.545 285.492,225.545 285.5,222.5C 287.099,222.232 288.432,222.566 289.5,223.5 Z"/></g>
<g><path style="opacity:1" fill="#7c6e37" d="M 308.5,214.5 C 304.044,222.781 297.044,226.114 287.5,224.5C 287.737,225.791 287.404,226.791 286.5,227.5C 286.5,226.167 286.5,224.833 286.5,223.5C 287.5,223.5 288.5,223.5 289.5,223.5C 297.239,223.464 303.573,220.464 308.5,214.5 Z"/></g>
<g><path style="opacity:1" fill="#edd57a" d="M 261.5,190.5 C 262.139,191.097 262.472,191.93 262.5,193C 262.067,194.928 261.4,196.761 260.5,198.5C 260.977,201.259 262.644,202.925 265.5,203.5C 264.691,205.071 264.357,206.738 264.5,208.5C 265.822,208.67 266.989,208.337 268,207.5C 268.5,208.5 269,209.5 269.5,210.5C 268.572,211.768 268.405,213.101 269,214.5C 270.898,217.768 272.732,221.101 274.5,224.5C 277.39,222.957 279.057,220.624 279.5,217.5C 281.28,218.99 281.946,220.99 281.5,223.5C 280.752,225.332 279.752,226.999 278.5,228.5C 276.801,228.66 275.134,228.494 273.5,228C 272.588,225.749 271.588,223.583 270.5,221.5C 270.573,219.973 269.906,218.973 268.5,218.5C 268.672,217.508 268.338,216.842 267.5,216.5C 267.245,214.033 266.245,212.033 264.5,210.5C 264.167,209.833 263.833,209.167 263.5,208.5C 263.408,206.152 262.408,204.486 260.5,203.5C 260.107,201.716 259.441,200.05 258.5,198.5C 260.428,196.219 261.428,193.553 261.5,190.5 Z"/></g>
<g><path style="opacity:1" fill="#5f582a" d="M 255.5,224.5 C 256.906,224.973 257.573,225.973 257.5,227.5C 256.094,227.027 255.427,226.027 255.5,224.5 Z"/></g>
<g><path style="opacity:1" fill="#ebd57a" d="M 310.5,213.5 C 308.199,218.649 304.533,222.816 299.5,226C 295.858,226.914 292.192,227.748 288.5,228.5C 287.015,231.823 285.348,234.823 283.5,237.5C 283.5,236.5 283.5,235.5 283.5,234.5C 284.404,233.791 284.737,232.791 284.5,231.5C 285.674,230.486 286.34,229.153 286.5,227.5C 287.404,226.791 287.737,225.791 287.5,224.5C 297.044,226.114 304.044,222.781 308.5,214.5C 309.167,214.167 309.833,213.833 310.5,213.5 Z"/></g>
<g><path style="opacity:1" fill="#857742" d="M 186.5,223.5 C 189.201,226.235 190.868,229.569 191.5,233.5C 189.336,231.178 187.669,228.511 186.5,225.5C 186.5,224.833 186.5,224.167 186.5,223.5 Z"/></g>
<g><path style="opacity:1" fill="#6e6434" d="M 251.5,221.5 C 251.5,221.833 251.5,222.167 251.5,222.5C 249.654,224.03 248.654,226.03 248.5,228.5C 247.022,225.261 248.022,222.928 251.5,221.5 Z"/></g>
<g><path style="opacity:1" fill="#423d18" d="M 281.5,223.5 C 281.833,223.5 282.167,223.5 282.5,223.5C 282.33,226.204 280.997,227.871 278.5,228.5C 279.752,226.999 280.752,225.332 281.5,223.5 Z"/></g>
<g><path style="opacity:1" fill="#b9a860" d="M 232.5,221.5 C 233.117,221.611 233.617,221.944 234,222.5C 234.495,224.473 234.662,226.473 234.5,228.5C 233.776,226.782 233.109,224.948 232.5,223C 231.004,222.493 229.837,222.993 229,224.5C 228.501,229.489 228.334,234.489 228.5,239.5C 226.969,234.75 226.302,229.75 226.5,224.5C 228.053,222.615 230.053,221.615 232.5,221.5 Z"/></g>
<g><path style="opacity:1" fill="#685d28" d="M 248.5,228.5 C 249.906,228.973 250.573,229.973 250.5,231.5C 249.094,231.027 248.427,230.027 248.5,228.5 Z"/></g>
<g><path style="opacity:1" fill="#908248" d="M 257.5,227.5 C 259.008,229.181 260.008,231.181 260.5,233.5C 258.031,232.393 257.031,230.393 257.5,227.5 Z"/></g>
<g><path style="opacity:1" fill="#382e0f" d="M 235.5,228.5 C 237.54,229.86 239.54,231.193 241.5,232.5C 238.122,233.109 236.122,231.776 235.5,228.5 Z"/></g>
<g><path style="opacity:1" fill="#e5ce75" d="M 251.5,222.5 C 253.062,222.733 254.395,223.4 255.5,224.5C 255.427,226.027 256.094,227.027 257.5,227.5C 257.031,230.393 258.031,232.393 260.5,233.5C 260.427,235.027 261.094,236.027 262.5,236.5C 262.427,238.027 263.094,239.027 264.5,239.5C 265.167,239.833 265.833,240.167 266.5,240.5C 266.611,241.117 266.944,241.617 267.5,242C 270.482,242.498 273.482,242.665 276.5,242.5C 272.689,243.645 268.689,243.812 264.5,243C 261.739,240.656 259.572,237.822 258,234.5C 257,235.833 256,235.833 255,234.5C 256.314,238.985 257.148,243.652 257.5,248.5C 257.359,251.358 257.026,254.192 256.5,257C 256.316,258.376 255.649,259.209 254.5,259.5C 255.392,254.562 255.726,249.562 255.5,244.5C 255.88,242.302 255.213,240.635 253.5,239.5C 253.097,236.514 252.097,233.848 250.5,231.5C 250.573,229.973 249.906,228.973 248.5,228.5C 248.654,226.03 249.654,224.03 251.5,222.5 Z"/></g>
<g><path style="opacity:1" fill="#d1be71" d="M 234.5,228.5 C 234.833,228.5 235.167,228.5 235.5,228.5C 236.122,231.776 238.122,233.109 241.5,232.5C 242.6,233.605 243.267,234.938 243.5,236.5C 243.5,237.167 243.5,237.833 243.5,238.5C 241.896,237.713 241.229,236.38 241.5,234.5C 236.977,234.973 234.643,232.973 234.5,228.5 Z"/></g>
<g><path style="opacity:1" fill="#706534" d="M 191.5,233.5 C 192.906,233.973 193.573,234.973 193.5,236.5C 192.094,236.027 191.427,235.027 191.5,233.5 Z"/></g>
<g><path style="opacity:1" fill="#ab985b" d="M 199.5,228.5 C 202.381,229.915 204.047,232.249 204.5,235.5C 205.441,237.05 206.107,238.716 206.5,240.5C 203.665,236.836 201.332,232.836 199.5,228.5 Z"/></g>
<g><path style="opacity:1" fill="#382b10" d="M 217.5,227.5 C 216.746,232.463 216.413,237.463 216.5,242.5C 215.353,238.354 215.186,234.02 216,229.5C 216.278,228.584 216.778,227.918 217.5,227.5 Z"/></g>
<g><path style="opacity:1" fill="#6b5b2c" d="M 260.5,233.5 C 261.906,233.973 262.573,234.973 262.5,236.5C 261.094,236.027 260.427,235.027 260.5,233.5 Z"/></g>
<g><path style="opacity:1" fill="#786a3a" d="M 167.5,236.5 C 169.404,236.738 170.738,237.738 171.5,239.5C 169.596,239.262 168.262,238.262 167.5,236.5 Z"/></g>
<g><path style="opacity:1" fill="#70632e" d="M 163.5,236.5 C 162.738,238.262 161.404,239.262 159.5,239.5C 160.262,237.738 161.596,236.738 163.5,236.5 Z"/></g>
<g><path style="opacity:1" fill="#5d5330" d="M 243.5,236.5 C 245.048,236.821 245.715,237.821 245.5,239.5C 244.833,239.167 244.167,238.833 243.5,238.5C 243.5,237.833 243.5,237.167 243.5,236.5 Z"/></g>
<g><path style="opacity:1" fill="#776b39" d="M 262.5,236.5 C 263.906,236.973 264.573,237.973 264.5,239.5C 263.094,239.027 262.427,238.027 262.5,236.5 Z"/></g>
<g><path style="opacity:1" fill="#7d7039" d="M 283.5,234.5 C 283.5,235.5 283.5,236.5 283.5,237.5C 281.427,239.58 279.093,241.246 276.5,242.5C 276.5,242.167 276.5,241.833 276.5,241.5C 279.194,239.473 281.527,237.139 283.5,234.5 Z"/></g>
<g><path style="opacity:1" fill="#51461f" d="M 193.5,236.5 C 194.906,236.973 195.573,237.973 195.5,239.5C 194.833,239.167 194.167,238.833 193.5,238.5C 193.5,237.833 193.5,237.167 193.5,236.5 Z"/></g>
<g><path style="opacity:1" fill="#fadf79" d="M 234.5,228.5 C 234.643,232.973 236.977,234.973 241.5,234.5C 241.229,236.38 241.896,237.713 243.5,238.5C 244.167,238.833 244.833,239.167 245.5,239.5C 245.5,240.833 245.5,242.167 245.5,243.5C 245.5,247.5 245.5,251.5 245.5,255.5C 244.341,257.377 242.674,257.877 240.5,257C 238.63,254.96 236.63,253.127 234.5,251.5C 234.5,250.833 234.5,250.167 234.5,249.5C 234.002,245.155 232.002,241.821 228.5,239.5C 228.334,234.489 228.501,229.489 229,224.5C 229.837,222.993 231.004,222.493 232.5,223C 233.109,224.948 233.776,226.782 234.5,228.5 Z"/></g>
<g><path style="opacity:1" fill="#796c32" d="M 171.5,239.5 C 173.404,239.738 174.738,240.738 175.5,242.5C 173.596,242.262 172.262,241.262 171.5,239.5 Z"/></g>
<g><path style="opacity:1" fill="#b3a061" d="M 193.5,238.5 C 194.167,238.833 194.833,239.167 195.5,239.5C 196.11,240.391 196.443,241.391 196.5,242.5C 196.5,243.167 196.5,243.833 196.5,244.5C 195.508,242.544 194.508,240.544 193.5,238.5 Z"/></g>
<g><path style="opacity:1" fill="#373011" d="M 266.5,240.5 C 269.764,241.324 273.098,241.658 276.5,241.5C 276.5,241.833 276.5,242.167 276.5,242.5C 273.482,242.665 270.482,242.498 267.5,242C 266.944,241.617 266.611,241.117 266.5,240.5 Z"/></g>
<g><path style="opacity:1" fill="#7f733e" d="M 175.5,242.5 C 177.404,242.738 178.738,243.738 179.5,245.5C 177.596,245.262 176.262,244.262 175.5,242.5 Z"/></g>
<g><path style="opacity:1" fill="#c0af69" d="M 228.5,239.5 C 232.002,241.821 234.002,245.155 234.5,249.5C 232.503,246.175 230.503,242.841 228.5,239.5 Z"/></g>
<g><path style="opacity:1" fill="#6f622d" d="M 253.5,239.5 C 255.213,240.635 255.88,242.302 255.5,244.5C 255.167,244.5 254.833,244.5 254.5,244.5C 253.699,242.958 253.366,241.292 253.5,239.5 Z"/></g>
<g><path style="opacity:1" fill="#52461f" d="M 196.5,242.5 C 197.906,242.973 198.573,243.973 198.5,245.5C 197.833,245.167 197.167,244.833 196.5,244.5C 196.5,243.833 196.5,243.167 196.5,242.5 Z"/></g>
<g><path style="opacity:1" fill="#605225" d="M 206.5,242.5 C 207.906,242.973 208.573,243.973 208.5,245.5C 207.094,245.027 206.427,244.027 206.5,242.5 Z"/></g>
<g><path style="opacity:1" fill="#6a5d2d" d="M 158.5,240.5 C 157.158,243.166 155.325,245.499 153,247.5C 151.988,250.31 150.822,252.976 149.5,255.5C 149.167,255.5 148.833,255.5 148.5,255.5C 149.607,248.935 152.941,243.935 158.5,240.5 Z"/></g>
<g><path style="opacity:1" fill="#7a6932" d="M 179.5,245.5 C 181.404,245.738 182.738,246.738 183.5,248.5C 181.596,248.262 180.262,247.262 179.5,245.5 Z"/></g>
<g><path style="opacity:1" fill="#d4c174" d="M 245.5,243.5 C 247.696,247.241 248.029,251.241 246.5,255.5C 246.167,255.5 245.833,255.5 245.5,255.5C 245.5,251.5 245.5,247.5 245.5,243.5 Z"/></g>
<g><path style="opacity:1" fill="#4c411e" d="M 245.5,239.5 C 248.181,244.08 249.015,249.08 248,254.5C 247.617,255.056 247.117,255.389 246.5,255.5C 248.029,251.241 247.696,247.241 245.5,243.5C 245.5,242.167 245.5,240.833 245.5,239.5 Z"/></g>
<g><path style="opacity:1" fill="#beae64" d="M 183.5,248.5 C 187.071,248.561 189.404,250.227 190.5,253.5C 187.63,252.567 185.296,250.9 183.5,248.5 Z"/></g>
<g><path style="opacity:1" fill="#e6cf79" d="M 196.5,244.5 C 197.167,244.833 197.833,245.167 198.5,245.5C 199.11,246.391 199.443,247.391 199.5,248.5C 198.916,251.285 199.916,252.952 202.5,253.5C 203.338,253.842 203.672,254.508 203.5,255.5C 203.427,257.027 204.094,258.027 205.5,258.5C 205.833,259.167 206.167,259.833 206.5,260.5C 206.678,261.695 207.011,262.862 207.5,264C 207.164,265.03 206.497,265.53 205.5,265.5C 203.973,265.573 202.973,264.906 202.5,263.5C 202.631,262.761 202.464,262.094 202,261.5C 200.02,260.251 198.187,258.918 196.5,257.5C 197.496,257.414 198.329,257.748 199,258.5C 199.167,257.833 199.333,257.167 199.5,256.5C 197.03,252.884 196.03,248.884 196.5,244.5 Z"/></g>
<g><path style="opacity:1" fill="#72662f" d="M 208.5,245.5 C 210.245,247.033 211.245,249.033 211.5,251.5C 209.755,249.967 208.755,247.967 208.5,245.5 Z"/></g>
<g><path style="opacity:1" fill="#a99953" d="M 199.5,248.5 C 201.25,249.659 202.25,251.326 202.5,253.5C 199.916,252.952 198.916,251.285 199.5,248.5 Z"/></g>
<g><path style="opacity:1" fill="#473d1c" d="M 234.5,251.5 C 236.63,253.127 238.63,254.96 240.5,257C 242.674,257.877 244.341,257.377 245.5,255.5C 245.833,255.5 246.167,255.5 246.5,255.5C 246.5,256.5 246.5,257.5 246.5,258.5C 240.51,259.5 236.51,257.166 234.5,251.5 Z"/></g>
<g><path style="opacity:1" fill="#867640" d="M 159.5,251.5 C 161.897,253.662 163.564,256.329 164.5,259.5C 162.413,258.415 161.08,256.749 160.5,254.5C 159.89,253.609 159.557,252.609 159.5,251.5 Z"/></g>
<g><path style="opacity:1" fill="#897b41" d="M 190.5,253.5 C 192.754,254.415 194.754,255.748 196.5,257.5C 198.187,258.918 200.02,260.251 202,261.5C 202.464,262.094 202.631,262.761 202.5,263.5C 197.667,261.348 193.667,258.015 190.5,253.5 Z"/></g>
<g><path style="opacity:1" fill="#594c25" d="M 211.5,251.5 C 213.245,253.033 214.245,255.033 214.5,257.5C 212.755,255.967 211.755,253.967 211.5,251.5 Z"/></g>
<g><path style="opacity:1" fill="#504719" d="M 203.5,255.5 C 204.906,255.973 205.573,256.973 205.5,258.5C 204.094,258.027 203.427,257.027 203.5,255.5 Z"/></g>
<g><path style="opacity:1" fill="#66592b" d="M 219.5,253.5 C 221.245,255.033 222.245,257.033 222.5,259.5C 220.755,257.967 219.755,255.967 219.5,253.5 Z"/></g>
<g><path style="opacity:1" fill="#6a5c2f" d="M 254.5,244.5 C 254.833,244.5 255.167,244.5 255.5,244.5C 255.726,249.562 255.392,254.562 254.5,259.5C 253.199,262.801 250.865,265.135 247.5,266.5C 253.078,260.356 255.411,253.023 254.5,244.5 Z"/></g>
<g><path style="opacity:1" fill="#2c2511" d="M 154.5,257.5 C 154.205,259.735 154.539,261.735 155.5,263.5C 156.5,266.167 157.5,268.833 158.5,271.5C 157.624,271.631 156.957,271.298 156.5,270.5C 153.758,266.3 153.092,261.967 154.5,257.5 Z"/></g>
<g><path style="opacity:1" fill="#5f552a" d="M 159.5,251.5 C 156.074,254.6 154.74,258.6 155.5,263.5C 154.539,261.735 154.205,259.735 154.5,257.5C 155.03,255.076 155.864,252.743 157,250.5C 158.461,249.117 159.294,249.451 159.5,251.5 Z"/></g>
<g><path style="opacity:1" fill="#f6dd78" d="M 160.5,254.5 C 161.08,256.749 162.413,258.415 164.5,259.5C 165.434,260.568 165.768,261.901 165.5,263.5C 165.738,265.404 166.738,266.738 168.5,267.5C 168.232,269.099 168.566,270.432 169.5,271.5C 169.773,273.958 168.773,275.625 166.5,276.5C 164.925,275.544 163.258,274.877 161.5,274.5C 159.924,270.02 158.591,265.52 157.5,261C 157.667,259.5 157.833,258 158,256.5C 158.417,255.244 159.25,254.577 160.5,254.5 Z"/></g>
<g><path style="opacity:1" fill="#4d472d" d="M 178.5,262.5 C 177.662,262.842 177.328,263.508 177.5,264.5C 175.896,263.713 175.229,262.38 175.5,260.5C 177.179,260.285 178.179,260.952 178.5,262.5 Z"/></g>
<g><path style="opacity:1" fill="#eed678" d="M 204.5,235.5 C 206.43,236.763 208.097,238.43 209.5,240.5C 210.567,243.534 211.734,246.534 213,249.5C 213.667,250.833 214.333,250.833 215,249.5C 215.483,248.552 215.649,247.552 215.5,246.5C 215.833,246.5 216.167,246.5 216.5,246.5C 217.237,248.97 218.237,251.304 219.5,253.5C 219.755,255.967 220.755,257.967 222.5,259.5C 223.338,259.842 223.672,260.508 223.5,261.5C 224.075,263.411 225.075,265.078 226.5,266.5C 225.167,266.5 223.833,266.5 222.5,266.5C 222.5,267.833 222.5,269.167 222.5,270.5C 221.857,268.924 220.857,267.59 219.5,266.5C 219.275,263.454 217.942,261.121 215.5,259.5C 215.672,258.508 215.338,257.842 214.5,257.5C 214.245,255.033 213.245,253.033 211.5,251.5C 211.245,249.033 210.245,247.033 208.5,245.5C 208.573,243.973 207.906,242.973 206.5,242.5C 206.5,241.833 206.5,241.167 206.5,240.5C 206.107,238.716 205.441,237.05 204.5,235.5 Z"/></g>
<g><path style="opacity:1" fill="#8a7c44" d="M 223.5,261.5 C 226.167,263.5 228.5,265.833 230.5,268.5C 228.938,268.267 227.605,267.6 226.5,266.5C 225.075,265.078 224.075,263.411 223.5,261.5 Z"/></g>
<g><path style="opacity:1" fill="#382f13" d="M 148.5,255.5 C 148.833,255.5 149.167,255.5 149.5,255.5C 148.725,260.797 148.392,266.13 148.5,271.5C 147.167,266.167 147.167,260.833 148.5,255.5 Z"/></g>
<g><path style="opacity:1" fill="#61552a" d="M 215.5,259.5 C 217.942,261.121 219.275,263.454 219.5,266.5C 217.058,264.879 215.725,262.546 215.5,259.5 Z"/></g>
<g><path style="opacity:1" fill="#7a6c39" d="M 165.5,263.5 C 167.262,264.262 168.262,265.596 168.5,267.5C 166.738,266.738 165.738,265.404 165.5,263.5 Z"/></g>
<g><path style="opacity:1" fill="#bdad68" d="M 178.5,262.5 C 180.5,264.167 182.5,265.833 184.5,267.5C 180.598,266.17 179.598,267.503 181.5,271.5C 179.805,269.465 178.472,267.132 177.5,264.5C 177.328,263.508 177.662,262.842 178.5,262.5 Z"/></g>
<g><path style="opacity:1" fill="#70653e" d="M 206.5,260.5 C 208.834,262.176 209.834,264.509 209.5,267.5C 207.62,267.771 206.287,267.104 205.5,265.5C 206.497,265.53 207.164,265.03 207.5,264C 207.011,262.862 206.678,261.695 206.5,260.5 Z"/></g>
<g><path style="opacity:1" fill="#d9c674" d="M 159.5,251.5 C 159.557,252.609 159.89,253.609 160.5,254.5C 159.25,254.577 158.417,255.244 158,256.5C 157.833,258 157.667,259.5 157.5,261C 158.591,265.52 159.924,270.02 161.5,274.5C 160.272,273.694 159.272,272.694 158.5,271.5C 157.5,268.833 156.5,266.167 155.5,263.5C 154.74,258.6 156.074,254.6 159.5,251.5 Z"/></g>
<g><path style="opacity:1" fill="#4d421f" d="M 185.5,267.5 C 187.404,267.738 188.738,268.738 189.5,270.5C 187.596,270.262 186.262,269.262 185.5,267.5 Z"/></g>
<g><path style="opacity:1" fill="#564b1e" d="M 247.5,266.5 C 247.167,267.5 246.5,268.167 245.5,268.5C 244.833,268.5 244.167,268.5 243.5,268.5C 244.514,267.326 245.847,266.66 247.5,266.5 Z"/></g>
<g><path style="opacity:1" fill="#564c1c" d="M 230.5,268.5 C 234.119,269.244 237.785,269.577 241.5,269.5C 239.393,270.468 237.059,270.802 234.5,270.5C 232.62,270.771 231.287,270.104 230.5,268.5 Z"/></g>
<g><path style="opacity:1" fill="#897e43" d="M 168.5,267.5 C 169.674,268.514 170.34,269.847 170.5,271.5C 170.167,271.5 169.833,271.5 169.5,271.5C 168.566,270.432 168.232,269.099 168.5,267.5 Z"/></g>
<g><path style="opacity:1" fill="#c8b66a" d="M 243.5,268.5 C 244.167,268.5 244.833,268.5 245.5,268.5C 245.423,269.75 244.756,270.583 243.5,271C 240.304,271.805 237.304,271.638 234.5,270.5C 237.059,270.802 239.393,270.468 241.5,269.5C 242.492,269.672 243.158,269.338 243.5,268.5 Z"/></g>
<g><path style="opacity:1" fill="#574925" d="M 189.5,270.5 C 191.404,270.738 192.738,271.738 193.5,273.5C 191.596,273.262 190.262,272.262 189.5,270.5 Z"/></g>
<g><path style="opacity:1" fill="#756733" d="M 219.5,266.5 C 220.857,267.59 221.857,268.924 222.5,270.5C 222.5,271.167 222.5,271.833 222.5,272.5C 220.755,270.967 219.755,268.967 219.5,266.5 Z"/></g>
<g><path style="opacity:1" fill="#a8975b" d="M 181.5,271.5 C 183.539,272.911 184.539,274.911 184.5,277.5C 182.992,275.819 181.992,273.819 181.5,271.5 Z"/></g>
<g><path style="opacity:1" fill="#5a5022" d="M 193.5,273.5 C 196.089,274.419 198.089,276.086 199.5,278.5C 198.391,278.443 197.391,278.11 196.5,277.5C 195.5,276.167 194.5,274.833 193.5,273.5 Z"/></g>
<g><path style="opacity:1" fill="#7a6b35" d="M 148.5,271.5 C 149.537,272.93 150.204,274.597 150.5,276.5C 148.787,275.365 148.12,273.698 148.5,271.5 Z"/></g>
<g><path style="opacity:1" fill="#e4cf76" d="M 169.5,271.5 C 169.833,271.5 170.167,271.5 170.5,271.5C 171.537,272.93 172.204,274.597 172.5,276.5C 172.5,277.167 172.5,277.833 172.5,278.5C 171.448,278.351 170.448,278.517 169.5,279C 171.334,283.675 169.667,285.508 164.5,284.5C 164.5,284.167 164.5,283.833 164.5,283.5C 166.311,283.428 167.644,282.595 168.5,281C 168.164,279.97 167.497,279.47 166.5,279.5C 166.027,278.094 165.027,277.427 163.5,277.5C 162.833,276.5 162.167,275.5 161.5,274.5C 163.258,274.877 164.925,275.544 166.5,276.5C 168.773,275.625 169.773,273.958 169.5,271.5 Z"/></g>
<g><path style="opacity:1" fill="#a08b47" d="M 223.5,274.5 C 225.048,274.821 225.715,275.821 225.5,277.5C 224.833,277.167 224.167,276.833 223.5,276.5C 223.5,275.833 223.5,275.167 223.5,274.5 Z"/></g>
<g><path style="opacity:1" fill="#6f6229" d="M 150.5,276.5 C 151.906,276.973 152.573,277.973 152.5,279.5C 151.094,279.027 150.427,278.027 150.5,276.5 Z"/></g>
<g><path style="opacity:1" fill="#efd678" d="M 184.5,267.5 C 184.833,267.5 185.167,267.5 185.5,267.5C 186.262,269.262 187.596,270.262 189.5,270.5C 190.262,272.262 191.596,273.262 193.5,273.5C 194.5,274.833 195.5,276.167 196.5,277.5C 191.569,274.039 188.903,275.372 188.5,281.5C 188.728,283.207 189.062,284.874 189.5,286.5C 188.833,286.167 188.167,285.833 187.5,285.5C 187.5,285.167 187.5,284.833 187.5,284.5C 187.408,282.152 186.408,280.486 184.5,279.5C 184.5,278.833 184.5,278.167 184.5,277.5C 184.539,274.911 183.539,272.911 181.5,271.5C 179.598,267.503 180.598,266.17 184.5,267.5 Z"/></g>
<g><path style="opacity:1" fill="#61592e" d="M 163.5,277.5 C 165.027,277.427 166.027,278.094 166.5,279.5C 164.973,279.573 163.973,278.906 163.5,277.5 Z"/></g>
<g><path style="opacity:1" fill="#65592d" d="M 172.5,276.5 C 174.262,277.262 175.262,278.596 175.5,280.5C 174.5,279.833 173.5,279.167 172.5,278.5C 172.5,277.833 172.5,277.167 172.5,276.5 Z"/></g>
<g><path style="opacity:1" fill="#806e3e" d="M 199.5,278.5 C 201.027,278.427 202.027,279.094 202.5,280.5C 200.973,280.573 199.973,279.906 199.5,278.5 Z"/></g>
<g><path style="opacity:1" fill="#786a33" d="M 152.5,279.5 C 155.633,283.078 159.633,284.411 164.5,283.5C 164.5,283.833 164.5,284.167 164.5,284.5C 161.482,284.665 158.482,284.498 155.5,284C 153.859,282.871 152.859,281.371 152.5,279.5 Z"/></g>
<g><path style="opacity:1" fill="#564c21" d="M 202.5,280.5 C 204.404,280.738 205.738,281.738 206.5,283.5C 204.596,283.262 203.262,282.262 202.5,280.5 Z"/></g>
<g><path style="opacity:1" fill="#604d21" d="M 166.5,279.5 C 167.497,279.47 168.164,279.97 168.5,281C 167.644,282.595 166.311,283.428 164.5,283.5C 165.6,282.395 166.267,281.062 166.5,279.5 Z"/></g>
<g><path style="opacity:1" fill="#64582f" d="M 184.5,279.5 C 186.408,280.486 187.408,282.152 187.5,284.5C 185.75,283.341 184.75,281.674 184.5,279.5 Z"/></g>
<g><path style="opacity:1" fill="#64572a" d="M 206.5,283.5 C 208.027,283.427 209.027,284.094 209.5,285.5C 207.973,285.573 206.973,284.906 206.5,283.5 Z"/></g>
<g><path style="opacity:1" fill="#5e5126" d="M 223.5,276.5 C 224.167,276.833 224.833,277.167 225.5,277.5C 227.574,279.715 227.907,282.215 226.5,285C 224.208,286.29 222.208,287.957 220.5,290C 218.5,290.667 216.5,290.667 214.5,290C 213.944,289.617 213.611,289.117 213.5,288.5C 215.455,289.323 217.455,289.49 219.5,289C 221.373,286.791 223.54,284.958 226,283.5C 225.763,281.011 224.929,278.678 223.5,276.5 Z"/></g>
<g><path style="opacity:1" fill="#4d401b" d="M 209.5,285.5 C 211.404,285.738 212.738,286.738 213.5,288.5C 211.596,288.262 210.262,287.262 209.5,285.5 Z"/></g>
<g><path style="opacity:1" fill="#554721" d="M 187.5,285.5 C 188.167,285.833 188.833,286.167 189.5,286.5C 190.363,288.421 191.029,290.421 191.5,292.5C 189.801,290.434 188.468,288.1 187.5,285.5 Z"/></g>
<g><path style="opacity:1" fill="#63552a" d="M 179.5,289.5 C 180.906,289.973 181.573,290.973 181.5,292.5C 180.094,292.027 179.427,291.027 179.5,289.5 Z"/></g>
<g><path style="opacity:1" fill="#b9a85d" d="M 177.5,285.5 C 178.674,286.514 179.34,287.847 179.5,289.5C 179.427,291.027 180.094,292.027 181.5,292.5C 182.674,293.514 183.34,294.847 183.5,296.5C 179.209,294.263 177.209,290.596 177.5,285.5 Z"/></g>
<g><path style="opacity:1" fill="#897445" d="M 191.5,292.5 C 192.906,292.973 193.573,293.973 193.5,295.5C 192.094,295.027 191.427,294.027 191.5,292.5 Z"/></g>
<g><path style="opacity:1" fill="#fdc760" d="M 394.5,297.5 C 394.833,297.5 395.167,297.5 395.5,297.5C 395.825,305.019 395.492,312.352 394.5,319.5C 394.5,317.833 394.5,316.167 394.5,314.5C 387.583,315.121 380.583,315.121 373.5,314.5C 358.167,314.5 342.833,314.5 327.5,314.5C 343.328,313.669 359.328,313.169 375.5,313C 384.162,310.489 390.495,305.322 394.5,297.5 Z"/></g>
<g><path style="opacity:1" fill="#98884a" d="M 193.5,295.5 C 197.45,298.844 198.95,303.178 198,308.5C 196.281,310.557 194.281,312.224 192,313.5C 190.145,312.337 188.811,310.67 188,308.5C 185.655,304.812 184.155,300.812 183.5,296.5C 185.236,299.512 187.069,302.512 189,305.5C 189.813,307.436 190.313,309.436 190.5,311.5C 193.624,311.057 195.957,309.39 197.5,306.5C 196.438,302.714 195.104,299.047 193.5,295.5 Z"/></g>
<g><path style="opacity:1" fill="#fdcd64" d="M 327.5,315.5 C 326.844,338.858 327.51,361.858 329.5,384.5C 328.4,385.605 327.733,386.938 327.5,388.5C 326.041,388.433 324.708,388.766 323.5,389.5C 324.606,386.946 325.439,384.279 326,381.5C 326.168,359.33 326.668,337.33 327.5,315.5 Z"/></g>
<g><path style="opacity:1" fill="#fead45" d="M 373.5,314.5 C 380.583,315.121 387.583,315.121 394.5,314.5C 394.5,316.167 394.5,317.833 394.5,319.5C 389.761,324.08 384.928,328.413 380,332.5C 376.403,337.101 372.403,341.434 368,345.5C 366.579,347.405 365.412,349.405 364.5,351.5C 363.448,351.351 362.448,351.517 361.5,352C 356.933,357.059 352.599,362.226 348.5,367.5C 343.65,369.672 339.65,373.006 336.5,377.5C 334.565,378.15 332.565,378.483 330.5,378.5C 330.762,379.978 330.429,381.311 329.5,382.5C 328.5,360.177 328.167,337.843 328.5,315.5C 343.676,315.829 358.676,315.496 373.5,314.5 Z"/></g>
<g><path style="opacity:1" fill="#f9b64f" d="M 327.5,314.5 C 342.833,314.5 358.167,314.5 373.5,314.5C 358.676,315.496 343.676,315.829 328.5,315.5C 328.167,337.843 328.5,360.177 329.5,382.5C 330.429,381.311 330.762,379.978 330.5,378.5C 332.565,378.483 334.565,378.15 336.5,377.5C 334.36,380.061 332.027,382.395 329.5,384.5C 327.51,361.858 326.844,338.858 327.5,315.5C 327.5,315.167 327.5,314.833 327.5,314.5 Z"/></g>
<g><path style="opacity:0.761" fill="#facc91" d="M 395.5,297.5 C 395.833,297.5 396.167,297.5 396.5,297.5C 396.666,305.174 396.5,312.841 396,320.5C 385.632,331.035 375.132,341.369 364.5,351.5C 365.412,349.405 366.579,347.405 368,345.5C 372.403,341.434 376.403,337.101 380,332.5C 384.928,328.413 389.761,324.08 394.5,319.5C 395.492,312.352 395.825,305.019 395.5,297.5 Z"/></g>
<g><path style="opacity:0.125" fill="#fcd29a" d="M 364.5,351.5 C 359.5,357.167 354.167,362.5 348.5,367.5C 352.599,362.226 356.933,357.059 361.5,352C 362.448,351.517 363.448,351.351 364.5,351.5 Z"/></g>
<g><path style="opacity:0.902" fill="#facc8f" d="M 348.5,367.5 C 341.833,374.833 334.833,381.833 327.5,388.5C 327.733,386.938 328.4,385.605 329.5,384.5C 332.027,382.395 334.36,380.061 336.5,377.5C 339.65,373.006 343.65,369.672 348.5,367.5 Z"/></g>
<g><path style="opacity:1" fill="#fbe5a3" d="M 327.5,388.5 C 322.673,395.001 316.673,400.001 309.5,403.5C 309.833,402.833 310.167,402.167 310.5,401.5C 314.201,401.133 316.201,399.133 316.5,395.5C 320.086,394.911 322.42,392.911 323.5,389.5C 324.708,388.766 326.041,388.433 327.5,388.5 Z"/></g>
<g><path style="opacity:1" fill="#f9e384" d="M 103.5,71.5 C 103.833,71.5 104.167,71.5 104.5,71.5C 104.5,182.5 104.5,293.5 104.5,404.5C 165.5,404.5 226.5,404.5 287.5,404.5C 292.179,404.666 296.845,404.499 301.5,404C 298.949,403.998 296.949,403.164 295.5,401.5C 298.788,401.073 301.788,401.74 304.5,403.5C 306.45,402.628 308.45,401.961 310.5,401.5C 310.167,402.167 309.833,402.833 309.5,403.5C 307.436,403.687 305.436,404.187 303.5,405C 237.168,405.5 170.834,405.667 104.5,405.5C 103.501,294.335 103.167,183.001 103.5,71.5 Z"/></g>
<g><path style="opacity:1" fill="#ffe07c" d="M 295.5,401.5 C 296.949,403.164 298.949,403.998 301.5,404C 296.845,404.499 292.179,404.666 287.5,404.5C 229.332,403.833 170.999,403.167 112.5,402.5C 173.496,401.5 234.496,401.167 295.5,401.5 Z"/></g>
<g><path style="opacity:0.935" fill="#f2e49e" d="M 309.5,403.5 C 308.158,404.793 306.491,405.626 304.5,406C 237.834,406.5 171.167,406.667 104.5,406.5C 104.5,406.167 104.5,405.833 104.5,405.5C 170.834,405.667 237.168,405.5 303.5,405C 305.436,404.187 307.436,403.687 309.5,403.5 Z"/></g>
</svg>
